<svg style="display:none">
  <style type="text/css">
    .st0{fill:#5D717F;}
    .st1{fill:#F3A7C9;}
  </style>
  <symbol id="calendar" viewBox="0 0 30 30">
    <g>
      <path d="M21.9,0c0.6,0,1.2,0.6,1.2,1.3l0,0v1.3h5.8c0.6,0,1.2,0.6,1.2,1.3l0,0v24.9
        c0,0.7-0.5,1.3-1.2,1.3l0,0H1.2C0.5,30,0,29.4,0,28.7l0,0V3.8c0-0.7,0.5-1.3,1.2-1.3l0,0h5.8V1.3C6.9,0.6,7.5,0,8.1,0
        s1.2,0.6,1.2,1.3l0,0v1.3h11.4V1.3C20.7,0.6,21.2,0,21.9,0z M6.9,5.1H2.3v22.4h25.3V5.1h-4.6v1.3c0,0.7-0.5,1.3-1.2,1.3
        s-1.2-0.6-1.2-1.3l0,0V5.1H9.3v1.3c0,0.7-0.5,1.3-1.2,1.3S6.9,7.1,6.9,6.4l0,0V5.1z M15,19.4c0.9,0,1.6,0.8,1.6,1.7
        s-0.7,1.7-1.6,1.7s-1.6-0.8-1.6-1.7S14.1,19.4,15,19.4z M8.1,19.4c0.9,0,1.6,0.8,1.6,1.7S9,22.8,8.1,22.8s-1.6-0.8-1.6-1.7
        S7.2,19.4,8.1,19.4z M21.9,19.4c0.9,0,1.6,0.8,1.6,1.7s-0.7,1.7-1.6,1.7s-1.6-0.8-1.6-1.7S21,19.4,21.9,19.4z M15,11.9
        c0.9,0,1.6,0.8,1.6,1.7s-0.7,1.7-1.6,1.7s-1.6-0.8-1.6-1.7S14.1,11.9,15,11.9z M8.1,11.9c0.9,0,1.6,0.8,1.6,1.7S9,15.4,8.1,15.4
        s-1.6-0.8-1.6-1.7S7.2,11.9,8.1,11.9z M21.9,11.9c0.9,0,1.6,0.8,1.6,1.7s-0.7,1.7-1.6,1.7s-1.6-0.8-1.6-1.7S21,11.9,21.9,11.9z"/>
    </g>
  </symbol>

  <symbol id="external" viewBox="0 0 16 16">
    <g>
      <path d="M7.4,2.2c0.4,0,0.7,0.3,0.7,0.8c0,0.4-0.3,0.7-0.6,0.7l-0.1,0H2.6c-0.4,0-0.8,0.3-0.8,0.7l0,0.1v8.8
	c0,0.4,0.3,0.8,0.7,0.8l0.1,0h8.8c0.4,0,0.8-0.3,0.8-0.7l0-0.1V8.6c0-0.4,0.3-0.8,0.8-0.8c0.4,0,0.7,0.3,0.7,0.6l0,0.1v4.8
	c0,1.2-1,2.3-2.2,2.3l-0.2,0H2.6c-1.2,0-2.3-1-2.3-2.2l0-0.2V4.6c0-1.2,1-2.3,2.2-2.3l0.2,0H7.4z M15,0.2L15,0.2
	C15,0.3,15.1,0.3,15,0.2L15,0.2c0,0,0.1,0,0.1,0c0,0,0,0,0,0c0,0,0,0,0.1,0c0,0,0,0,0,0c0,0,0,0,0.1,0c0,0,0,0,0,0c0,0,0,0,0.1,0
	c0,0,0,0,0,0c0.1,0,0.1,0.1,0.1,0.2l-0.1-0.1c0,0,0.1,0.1,0.1,0.1c0,0,0,0,0,0.1c0,0,0,0,0,0c0,0,0,0.1,0,0.1c0,0,0,0,0,0
	c0,0,0,0.1,0,0.1l0,0.1v4c0,0.4-0.3,0.8-0.8,0.8c-0.4,0-0.7-0.3-0.7-0.6l0-0.1V2.8L7.5,9.5c-0.3,0.3-0.8,0.3-1.1,0
	c-0.3-0.3-0.3-0.7-0.1-1l0.1-0.1l6.7-6.7H11c-0.4,0-0.7-0.3-0.7-0.6l0-0.1c0-0.4,0.3-0.7,0.6-0.7l0.1,0H15z"/>
    </g>
  </symbol>

  <symbol id="chevronRight" viewBox="0 0 9 16">
    <g>
      <path d="M0.5,0.5c0.3-0.3,0.8-0.3,1,0c0,0,0,0,0,0l6.7,6.8c0.4,0.4,0.4,1,0,1.4l-6.7,6.8
	c-0.3,0.3-0.8,0.3-1,0c0,0,0,0,0,0c-0.3-0.3-0.3-0.8,0-1.1L6.9,8l0,0L0.5,1.6C0.2,1.3,0.2,0.8,0.5,0.5z"/>
    </g>
  </symbol>  

  <symbol id="twitter" viewBox="0 0 30 24">
    <g>
      <path id="Path" d="M9.4,23.2c11.3,0,17.5-8.7,17.5-16.2c0-0.2,0-0.5,0-0.7c1.2-0.8,2.2-1.8,3.1-2.9
	c-1.1,0.5-2.3,0.8-3.5,0.9c1.3-0.7,2.2-1.8,2.7-3.1c-1.2,0.7-2.5,1.1-3.9,1.4c-1.1-1.1-2.7-1.8-4.5-1.8c-3.4,0-6.2,2.5-6.2,5.7
	c0,0.4,0.1,0.9,0.2,1.3C9.7,7.5,5.1,5.2,2.1,1.8C1.5,2.6,1.2,3.6,1.2,4.6c0,2,1.1,3.7,2.7,4.7c-1,0-2-0.3-2.8-0.7c0,0,0,0,0,0.1
	c0,2.7,2.1,5,4.9,5.6c-0.5,0.1-1.1,0.2-1.6,0.2c-0.4,0-0.8,0-1.2-0.1c0.8,2.3,3.1,3.9,5.8,3.9c-2.1,1.5-4.8,2.4-7.6,2.4
	c-0.5,0-1,0-1.5-0.1C2.7,22.3,6,23.2,9.4,23.2"/>
    </g>
  </symbol>  

  <symbol id="tooth" viewBox="0 0 60 60">
    <g transform="translate(254.000000, 348.000000)">
      <path id="Bg-tooth" class="st0" d="M-230-332.4c1.6-2.4,11.8,3,13.2,3c2,0,8.8-3.9,11.8-3c4.1,1.4,4,10.6,4,12.5
        c0,1.2-1.7,9.2-5.2,24c-0.1,0.6-0.6,1-1.2,1c-0.1,0-0.3,0-0.5,0c-0.9,0-3.1-4.8-6.4-14.3l0,0c-0.3-0.9-1.2-1.6-2.1-1.7
        c-1-0.1-1.6,0-1.8,0.2c-0.1,0.1-0.4,0.4-1.5,2.5c-0.8,1.6-2.3,5.7-4.6,12.3c-0.2,0.6-0.7,0.9-1.3,0.9h0c-0.6,0-1.1-0.4-1.2-0.9
        c-3.1-12.7-5.1-20.5-5.9-23.4C-233.7-323-231.9-329.4-230-332.4z"/>
      <path id="Tooth" class="st1" d="M-233.7-333.9c-2.4,3.5-3.9,10.1-2.8,13.8l0.4,1.3c1,3.6,2.8,10.9,5.5,22c0.2,0.9,1,1.6,1.9,1.6
        l0.2,0c1,0,1.9-0.6,2.2-1.6l1-3c1.7-4.8,2.9-7.9,3.5-9.2l0.2-0.5c0.3-0.6,0.5-1,0.7-1.3l0.1-0.1c0.1-0.2,0.2-0.2,0.2-0.3l0,0
        c0,0,0,0.1,0,0.1l0.1,0c0.2,0,0.6,0,1,0c0.6,0,1.1,0.5,1.3,1l0.8,2.3c3.2,8.9,4.9,12.6,6.4,12.6h0.5c1,0,1.9-0.7,2.1-1.7l1.7-7.3
        c2.3-9.9,3.5-15.4,3.5-16.8l0-0.4c0-2.3-0.1-4.1-0.4-6c-0.6-3.7-1.9-6.3-4.2-7c-1.4-0.5-3.2-0.2-5.7,0.7l-0.4,0.1
        c-0.3,0.1-0.6,0.2-0.9,0.3l-3.6,1.4c-1.1,0.4-1.2,0.4-1.5,0.4c-0.1,0-0.6-0.1-1.3-0.4l-3.3-1.3l-0.9-0.3c-0.1-0.1-0.3-0.1-0.4-0.2
        l-0.4-0.1C-230.2-335.2-232.7-335.5-233.7-333.9z M-226.7-332l0.6,0.2c0.2,0.1,0.4,0.2,0.7,0.3l1,0.4c0.9,0.3,2.2,0.9,2.5,1
        l0.5,0.2c0.8,0.3,1.3,0.4,1.7,0.4c0.5,0,1.2-0.2,2.2-0.5l0.7-0.3l2.1-0.8l0.7-0.2c0.2-0.1,0.4-0.1,0.6-0.2l0.3-0.1
        c2.4-0.8,4-1.1,4.9-0.8c1.5,0.5,2.5,2.5,3,5.6c0.3,1.7,0.4,3.3,0.4,5.2l0,0.8c0,1.1-1.8,9.2-5.2,23.7l0,0.1
        c-0.1,0.1-0.2,0.2-0.3,0.2h-0.3l-0.1-0.1c-0.1-0.1-0.2-0.2-0.2-0.3c-0.3-0.5-0.7-1.2-1.1-2.2l-0.1-0.3c-0.9-2.1-2.1-5.2-3.6-9.2
        l-0.5-1.5c-0.4-1.3-1.6-2.2-2.9-2.3c-1.2-0.1-2,0-2.5,0.5l-0.1,0.1c-0.3,0.4-0.7,1-1.4,2.3l-0.2,0.5c-0.8,1.8-2.3,5.8-4.5,12.2
        c-0.1,0.2-0.2,0.3-0.3,0.3l-0.1,0c-0.1,0-0.3-0.1-0.3-0.2l-2.4-9.8c-1.7-7-2.9-11.5-3.5-13.5c-0.9-3.1,0.5-9.2,2.6-12.3
        C-231.9-333.3-229.8-333.1-226.7-332z"/>
      <path id="Bg-Big-star" class="st0" d="M-236.6-328.7l1.9,6.2c0,0.1,0.1,0.2,0.2,0.2l6.2,1.9c0.2,0.1,0.3,0.3,0.2,0.5
        c0,0.1-0.1,0.2-0.2,0.2l-6.2,1.9c-0.1,0-0.2,0.1-0.2,0.2l-1.9,6.2c-0.1,0.2-0.3,0.3-0.5,0.2c-0.1,0-0.2-0.1-0.2-0.2l-1.9-6.2
        c0-0.1-0.1-0.2-0.2-0.2l-6.2-1.9c-0.2-0.1-0.3-0.3-0.2-0.5c0-0.1,0.1-0.2,0.2-0.2l6.2-1.9c0.1,0,0.2-0.1,0.2-0.2l1.9-6.2
        c0.1-0.2,0.3-0.3,0.5-0.2C-236.8-329-236.7-328.9-236.6-328.7z"/>
      <path id="Big-star" class="st1" d="M-238.6-328.7l1.9,6.2c0,0.1,0.1,0.2,0.2,0.2l6.2,1.9c0.2,0.1,0.3,0.3,0.2,0.5
        c0,0.1-0.1,0.2-0.2,0.2l-6.2,1.9c-0.1,0-0.2,0.1-0.2,0.2l-1.9,6.2c-0.1,0.2-0.3,0.3-0.5,0.2c-0.1,0-0.2-0.1-0.2-0.2l-1.9-6.2
        c0-0.1-0.1-0.2-0.2-0.2l-6.2-1.9c-0.2-0.1-0.3-0.3-0.2-0.5c0-0.1,0.1-0.2,0.2-0.2l6.2-1.9c0.1,0,0.2-0.1,0.2-0.2l1.9-6.2
        c0.1-0.2,0.3-0.3,0.5-0.2C-238.8-329-238.7-328.9-238.6-328.7z"/>
      <path id="Small-star-back" class="st0" d="M-212.5-340.2l0.8,2.6c0,0.2,0.2,0.3,0.3,0.3l2.6,0.8c0.3,0.1,0.4,0.3,0.3,0.6
        c0,0.2-0.2,0.3-0.3,0.3l-2.6,0.8c-0.2,0-0.3,0.2-0.3,0.3l-0.8,2.6c-0.1,0.3-0.3,0.4-0.6,0.3c-0.2,0-0.3-0.2-0.3-0.3l-0.8-2.6
        c0-0.2-0.2-0.3-0.3-0.3l-2.6-0.8c-0.3-0.1-0.4-0.3-0.3-0.6c0-0.2,0.2-0.3,0.3-0.3l2.6-0.8c0.2,0,0.3-0.2,0.3-0.3l0.8-2.6
        c0.1-0.3,0.3-0.4,0.6-0.3C-212.7-340.4-212.6-340.3-212.5-340.2z"/>
      <path id="Small-star" class="st1" d="M-213.5-340.2l0.8,2.6c0,0.2,0.2,0.3,0.3,0.3l2.6,0.8c0.3,0.1,0.4,0.3,0.3,0.6
        c0,0.2-0.2,0.3-0.3,0.3l-2.6,0.8c-0.2,0-0.3,0.2-0.3,0.3l-0.8,2.6c-0.1,0.3-0.3,0.4-0.6,0.3c-0.2,0-0.3-0.2-0.3-0.3l-0.8-2.6
        c0-0.2-0.2-0.3-0.3-0.3l-2.6-0.8c-0.3-0.1-0.4-0.3-0.3-0.6c0-0.2,0.2-0.3,0.3-0.3l2.6-0.8c0.2,0,0.3-0.2,0.3-0.3l0.8-2.6
        c0.1-0.3,0.3-0.4,0.6-0.3C-213.7-340.4-213.6-340.3-213.5-340.2z"/>
    </g>

  </symbol>

  <symbol id="mountain" viewBox="0 0 60 60">
    <g transform="translate(644.000000, 348.000000)">
      <path id="Bg-mountains" class="st0" d="M-612.2-314.7c0.4-0.2,1.1-0.1,1.9,0.3l0,0l6.5,6l0.1,0c0.1,0,0.2,0,0.3,0l0,0l1.2-1.2
        l0.1-0.1c0.9-0.8,2.4-0.7,3.2,0.2l0,0l10.3,11.9l0.1,0.1c0.1,0.2,0.1,0.6-0.1,1.1l0,0l-49.2,0c-0.2-0.6-0.2-1-0.1-1.2l0.1-0.1
        l6.1-6.6c0.8-0.8,2-1,2.9-0.3l0.1,0.1l1.1,0.9c0.1,0.1,0.2,0.1,0.3,0l0,0l2.8-3.2c0.6-0.7,1.7-0.8,2.5-0.2l0.1,0.1l5.6,5.5l-1.8-8
        c-0.3,0.1-0.7,0-0.9-0.2l-0.1-0.1c-0.2-0.4-0.1-0.8,0.3-1l0,0l6.5-3.8L-612.2-314.7z M-622.2-341.3c0.1,0,0.2,0.1,0.2,0.2l1.2,4
        c0,0.1,0.1,0.2,0.2,0.2l4,1.2c0.2,0,0.2,0.2,0.2,0.4c0,0.1-0.1,0.2-0.2,0.2l-4,1.2c-0.1,0-0.2,0.1-0.2,0.2l-1.2,4
        c0,0.2-0.2,0.2-0.4,0.2c-0.1,0-0.2-0.1-0.2-0.2l-1.2-4c0-0.1-0.1-0.2-0.2-0.2l-4-1.2c-0.2,0-0.2-0.2-0.2-0.4c0-0.1,0.1-0.2,0.2-0.2
        l4-1.2c0.1,0,0.2-0.1,0.2-0.2l1.2-4C-622.6-341.2-622.4-341.3-622.2-341.3z"/>
      <path id="Mountains" class="st1" d="M-607.2-327c1.8,0,4.6,3.4,8.4,9.7l0.2,0.4l0.7,1.2c0.3,0.5,0.6,0.9,0.8,1.4l0.4,0.7l0.9,1.5
        c1.6,2.8,3.2,5.8,4.8,8.7l0.7,1.3l0.3,0.5c0.3,0.5,0.5,1,0.7,1.5l0.2,0.5l1.1,2.1c0.2,0.4,0,0.8-0.3,1c-0.3,0.2-0.7,0.1-1-0.3
        l-0.1-0.1l-0.8-1.7c-0.2-0.4-0.5-0.9-0.7-1.4l-0.2-0.5l-1.2-2.3c-1.6-3-3.2-5.9-4.7-8.7c-0.6-1-1.1-2-1.7-2.9l-0.4-0.7l-0.2-0.4
        c-3.8-6.3-6.8-10.2-7.9-10.2c-0.9,0-2.3,1.3-4.1,3.6c-0.9,1.2-1.8,2.7-2.8,4.3c-1.1,1.8-2.1,3.7-3.1,5.7c-0.1,0.3-0.3,0.5-0.4,0.8
        l-0.2,0.4l-0.3,0.7l-0.2,0.4c0.4,0.6,0.7,1.3,1.1,2c1.1,2.2,2.3,4.6,3.3,7c0.1,0.3,0.3,0.7,0.4,1l0.2,0.5l0.2,0.5l19,0
        c0.6,0,1,0.4,1,1v1.8c0,0.6-0.4,1-1,1h-45c-0.6,0-1-0.4-1-1v-1.8c0-0.6,0.4-1,1-1l1.2,0l0,0c0.1-0.2,0.2-0.4,0.3-0.6l0.1-0.3l0.4-1
        c1-2.4,2.2-4.7,3.3-7c0.9-1.7,1.7-3.3,2.6-4.7c2.3-3.9,4.2-5.9,5.8-5.8c1.6,0.1,3.4,2.2,5.7,6c0.2,0.3,0.3,0.5,0.5,0.8l0.3-0.5
        l0.4-0.8c1-2,2.1-3.9,3.1-5.8c1-1.7,2-3.2,2.9-4.5C-610.4-325.5-608.7-327-607.2-327z M-625.4-316.6c-0.7,0-2.2,1.5-3.9,4.2
        l-0.2,0.3l-0.4,0.6c-0.8,1.3-1.6,2.9-2.5,4.6c-1.1,2.2-2.2,4.5-3.2,6.9c-0.1,0.2-0.2,0.4-0.3,0.6l-0.1,0.3l-0.1,0.3h21.6l-0.1-0.3
        l-0.4-1c-1.1-2.3-2.2-4.7-3.3-6.9c-0.4-0.8-0.8-1.6-1.2-2.3l0,0l0,0c-0.4-0.7-0.8-1.4-1.2-2C-622.9-314.6-624.6-316.5-625.4-316.6z
        M-624.3-341.3c0.1,0,0.2,0.1,0.2,0.2l1.2,4c0,0.1,0.1,0.2,0.2,0.2l4,1.2c0.2,0,0.2,0.2,0.2,0.4c0,0.1-0.1,0.2-0.2,0.2l-4,1.2
        c-0.1,0-0.2,0.1-0.2,0.2l-1.2,4c0,0.2-0.2,0.2-0.4,0.2c-0.1,0-0.2-0.1-0.2-0.2l-1.2-4c0-0.1-0.1-0.2-0.2-0.2l-4-1.2
        c-0.2,0-0.2-0.2-0.2-0.4c0-0.1,0.1-0.2,0.2-0.2l4-1.2c0.1,0,0.2-0.1,0.2-0.2l1.2-4C-624.6-341.2-624.4-341.3-624.3-341.3z"/>
    </g>

  </symbol>

  <symbol id="globe" viewBox="0 0 60 60">
    <g transform="translate(254.000000, 622.000000)">
      <path id="Bg-crystal-ball" class="st0" d="M-211.6-579.3c0.4,0,0.8,0.3,1,0.7l0.9,3.1c0.2,0.5-0.1,1.1-0.7,1.2c-0.1,0-0.2,0-0.3,0
        h-29.4c-0.6,0-1-0.4-1-1c0-0.1,0-0.2,0.1-0.3l1.1-3.1c0.1-0.4,0.5-0.7,0.9-0.7H-211.6z M-222.3-613.2c4.5,0,8.6,1.8,11.6,4.8
        l1.1-3.5c0-0.2,0.2-0.2,0.4-0.2c0.1,0,0.2,0.1,0.2,0.2l1.6,5.1c0,0.1,0.1,0.2,0.2,0.2l5.1,1.6c0.2,0,0.2,0.2,0.2,0.4
        c0,0.1-0.1,0.2-0.2,0.2l-4.9,1.5c0.8,1.9,1.2,4,1.2,6.3c0,9.1-7.3,16.4-16.4,16.4s-16.4-7.3-16.4-16.4S-231.4-613.2-222.3-613.2z"
        />
      <path id="Crystal-ball" class="st1" d="M-207.9-575c0.6,0,1,0.4,1,1v1.8c0,0.6-0.4,1-1,1H-243c-0.6,0-1-0.4-1-1v-1.8
        c0-0.6,0.4-1,1-1H-207.9z M-225.5-614c4.8,0,9.2,2,12.3,5.2l1-3.2c0-0.2,0.2-0.2,0.4-0.2c0.1,0,0.2,0.1,0.2,0.2l1.6,5.1
        c0,0.1,0.1,0.2,0.2,0.2l5.1,1.6c0.2,0,0.2,0.2,0.2,0.4c0,0.1-0.1,0.2-0.2,0.2l-4.7,1.5c0.8,2,1.2,4.1,1.2,6.3
        c0,5.7-2.7,10.7-7,13.8l3.2,0c0.6,0,1,0.4,1,1v1.8c0,0.6-0.4,1-1,1h-26.8c-0.6,0-1-0.4-1-1v-1.8c0-0.6,0.4-1,1-1l3.2,0
        c-4.2-3.1-7-8.1-7-13.8C-242.6-606.3-234.9-614-225.5-614z M-225.5-612.5c-8.7,0-15.7,7-15.7,15.7c0,6,3.3,11.2,8.3,13.8h14.8
        c4.9-2.6,8.3-7.8,8.3-13.8c0-1.6-0.2-3.1-0.7-4.6l-1.1,3.6c0,0.2-0.2,0.2-0.4,0.2c-0.1,0-0.2-0.1-0.2-0.2l-1.6-5.1
        c0-0.1-0.1-0.2-0.2-0.2l-5.1-1.6c-0.2,0-0.2-0.2-0.2-0.4c0-0.1,0.1-0.2,0.2-0.2l5.1-1.6c0.1,0,0.2-0.1,0.2-0.2l0.1-0.2
        C-216.5-610.4-220.8-612.5-225.5-612.5z M-217.3-597.7c0.1,0,0.2,0.1,0.2,0.2l0.5,1.7c0,0.1,0.1,0.2,0.2,0.2l1.7,0.5
        c0.2,0,0.2,0.2,0.2,0.4c0,0.1-0.1,0.2-0.2,0.2l-1.7,0.5c-0.1,0-0.2,0.1-0.2,0.2l-0.5,1.7c0,0.2-0.2,0.2-0.4,0.2
        c-0.1,0-0.2-0.1-0.2-0.2l-0.5-1.7c0-0.1-0.1-0.2-0.2-0.2l-1.7-0.5c-0.2,0-0.2-0.2-0.2-0.4c0-0.1,0.1-0.2,0.2-0.2l1.7-0.5
        c0.1,0,0.2-0.1,0.2-0.2l0.5-1.7C-217.7-597.6-217.5-597.7-217.3-597.7z"/>
    </g>
  </symbol>  

  <symbol id="hand" viewBox="0 0 60 60">
    <g transform="translate(645.000000, 622.000000)">
      <path id="Bg-hand" class="st0" d="M-609.1-567l16.1-10.5c0,0-4.7-4.6-5.3-6.6c-1-3.1,0.8-13.1,0.8-13.1s0.6-5.3-0.4-6.6
        c-0.3-0.4-1.7-0.7-1.7-0.7h-0.9c0,0-1.1,0.6-1.3,1.1c-0.3,0.6-0.6,2.5-0.6,2.5l-1,4.1l-0.2,0.9l-4.7-6.1l-2.7-3.7l-2.1-3.9
        c0,0-1.6-2.4-2.4-2.9c-0.4-0.3-1.4-0.5-1.9-0.4c-0.4,0.1-1.2,0.5-1.5,0.9c-0.2,0.3-0.3,1-0.5,1.2c-0.2,0.3-0.9,1.2-0.9,1.2
        s-1.6-2.7-2.6-2.9c-0.3-0.1-1.6,0.1-1.9,0.2c-0.5,0.2-1,0.8-1.3,1.2c-0.1,0.2,0,0.6,0,0.9v1.4v1.3l-1.3-0.2l-1.2,0.6
        c0,0-1.2,1.5-1.1,2.4c0.1,0.5,0.6,2.1,0.6,2.1l0.8,1.4c0,0-2.3,0.2-2.9,0.5c-0.6,0.3-1.6,1.3-1.8,1.9c-0.2,1,1.3,3.7,1.3,3.7
        l2.3,2.5l7.9,11.3l3.6,5.7l4.8,2.4L-609.1-567z"/>
      <path id="Hand-and-heart" class="st1" d="M-618.3-615.5c0.4,0.2,0.7,0.6,1.2,1.1c0.1,0.2,0.3,0.3,0.4,0.5c0.2,0.2,0.3,0.5,0.5,0.7
        l0.3,0.4l0.1,0.2l0.3,0.4l2,3.8l2.7,3.7l3.6,4.7l0.8-3.2l0,0l0,0l0,0l0.1-0.7c0-0.2,0.1-0.4,0.1-0.6c0.1-0.6,0.3-1.1,0.4-1.4
        c0.1-0.2,0.3-0.4,0.5-0.6c0.1-0.1,0.3-0.2,0.4-0.3c0.2-0.1,0.3-0.2,0.5-0.4l0.1,0l0,0l0,0l0.3-0.2h1.1l0.2,0l0.1,0l0,0l0.1,0
        l0.5,0.1l0.3,0.1c0.6,0.2,1,0.4,1.3,0.8c0.5,0.7,0.7,1.9,0.7,3.6c0,0.8,0,1.7-0.1,2.5c0,0.2,0,0.4-0.1,0.6l0,0.2l0,0.3
        c0,0.1,0,0.3-0.1,0.5l0,0.2l-0.2,1c-0.1,0.6-0.2,1.3-0.3,1.9c-0.2,1.2-0.3,2.3-0.4,3.4c-0.2,2.7-0.2,4.7,0.1,5.7
        c0.2,0.5,0.8,1.4,1.7,2.5c0.2,0.3,0.5,0.6,0.8,0.9c0.4,0.5,0.9,1,1.3,1.5l0.5,0.5l0.7,0.7l0.9,0.9l-17.6,11.6l-4.3-6.6l-4.8-2.4
        l-3.7-5.8l-7.7-11.2l-2.3-2.5l-0.1-0.2c0,0,0-0.1-0.1-0.1l0-0.1l-0.3-0.5c-0.1-0.2-0.2-0.4-0.3-0.7c-0.1-0.2-0.2-0.5-0.3-0.7
        c-0.4-0.9-0.5-1.6-0.4-2.2c0.2-0.9,1.3-2,2.2-2.5c0.3-0.2,0.8-0.3,1.4-0.4l0.2,0l0.3,0l-0.2-0.3l0-0.1l-0.2-0.6l-0.1-0.3l-0.1-0.4
        c-0.1-0.4-0.2-0.7-0.2-0.9c0-0.4,0-0.8,0.2-1.3c0.1-0.3,0.3-0.5,0.4-0.8c0.2-0.3,0.4-0.6,0.5-0.8l0.1-0.1l0.1-0.2l1.6-0.8l0.6,0.1
        l0-1.8l0-0.3c0-0.4,0-0.7,0.1-0.9c0.4-0.6,1-1.3,1.7-1.6c0.5-0.2,1.9-0.4,2.4-0.3c0.5,0.1,0.9,0.5,1.4,1c0.1,0.1,0.3,0.3,0.4,0.5
        l0.2,0.3l0.3,0.3l0.1,0.2l0.1-0.1c0,0,0,0,0,0l0,0l0.2-0.6c0.1-0.4,0.2-0.6,0.4-0.8c0.4-0.4,1.3-1,1.9-1.1l0.2,0l0.2,0
        C-619.9-616-618.8-615.8-618.3-615.5z M-620.4-614.3l-0.1,0c-0.2,0-0.7,0.3-0.9,0.5l-0.1,0.1l-0.2,0.7c0,0.1-0.1,0.3-0.2,0.4
        c0,0.1-0.1,0.1-0.1,0.2l-0.1,0.1l-0.2,0.3l-0.2,0.2l0,0c0.2,0.2,0.4,0.6,0.6,0.9l0.4,0.7l0.4,0.7l0.6,1c0.6,1,1.7,3.1,3.5,6.5
        c0.2,0.4,0.1,0.9-0.4,1.1c-0.4,0.2-0.9,0.1-1.1-0.4l-2.1-3.9c-0.4-0.8-0.8-1.4-1-1.9l-0.8-1.4l-0.6-1l-0.4-0.6
        c-0.1-0.2-0.2-0.3-0.3-0.5l0,0l0,0c-0.1-0.1-0.2-0.2-0.2-0.3c-0.1-0.1-0.1-0.2-0.1-0.3l-0.2-0.4c0-0.1-0.1-0.2-0.2-0.3l-0.1-0.1
        l-0.2-0.3c-0.2-0.2-0.3-0.4-0.5-0.6c-0.2-0.2-0.4-0.5-0.5-0.6c-0.3-0.3-0.5-0.5-0.6-0.5c-0.1,0-1.1,0.1-1.3,0.2
        c-0.2,0.1-0.6,0.4-0.8,0.7l0,0.1l0,0c0,0,0,0,0,0l0,0l0,0.4l0,3l6.7,10.1c0.3,0.4,0.2,0.9-0.2,1.2c-0.4,0.2-0.8,0.2-1.1-0.1
        l-0.1-0.1l-6.8-10.2c0-0.1-0.1-0.1-0.1-0.2l-0.5-0.1l-0.8,0.4l-0.1,0.1l-0.2,0.3l-0.1,0.2c-0.1,0.2-0.2,0.4-0.3,0.6
        c-0.1,0.2-0.1,0.4-0.1,0.5c0,0,0,0.1,0.1,0.3l0,0.1l0.1,0.4l0.1,0.4l0.2,0.6l1.2,2.3l4.6,6.7c0.3,0.4,0.2,0.9-0.2,1.2
        c-0.3,0.2-0.8,0.2-1.1-0.1l-0.1-0.1l-5-7.3l-0.2,0c-0.1,0-0.2,0-0.3,0l-0.3,0c-0.5,0.1-1,0.2-1.1,0.2c-0.5,0.3-1.3,1.1-1.3,1.3
        c0,0.1,0,0.4,0.2,0.7l0,0.1l0.1,0.3l0,0.1l0,0l0,0.1l0.2,0.4c0.1,0.2,0.2,0.4,0.3,0.6l0.2,0.3l0.2,0.3l2.3,2.6l7.8,11.3l3.4,5.5
        l4.8,2.4l3.6,5.6l14.5-9.5l-0.7-0.8l-0.6-0.7l-0.6-0.7c-0.3-0.3-0.5-0.6-0.8-0.9c-1-1.3-1.7-2.3-2-3.1c-0.4-1.3-0.4-3.5-0.2-6.4
        c0.1-1.1,0.2-2.3,0.4-3.4c0.1-0.7,0.2-1.4,0.3-2.1l0.1-0.5l0.2-1c0,0,0-0.1,0-0.1l0-0.1l0.1-0.8c0.1-0.8,0.1-1.6,0.1-2.4
        c0-1.3-0.2-2.3-0.4-2.7c0,0,0,0,0,0l0,0l-0.4-0.1c-0.1,0-0.2-0.1-0.4-0.1l-0.2,0l-0.2,0h-0.6l-0.3,0.2l-0.1,0.1
        c-0.1,0.1-0.1,0.1-0.2,0.2l-0.1,0.1l0,0l-0.1,0.1c0,0.1-0.1,0.2-0.2,0.5l0,0.1l-0.1,0.3l0,0.1l0,0l0,0.1l-0.1,0.6l-0.1,0.5l-1,4.1
        l-0.6,2.6l-5.8-7.6l-2.7-3.8l-2.1-3.8l0,0l0,0l0,0l-0.5-0.7c-0.2-0.2-0.3-0.4-0.5-0.7c-0.1-0.2-0.2-0.3-0.3-0.4
        c-0.3-0.4-0.6-0.7-0.7-0.8c-0.2-0.1-0.7-0.2-1.1-0.3L-620.4-614.3z M-614.3-595.6c1.7,0,3,1.4,3,3.1c0,3.9-5.2,6.6-5.2,6.6
        l-0.5-0.3c-1.3-0.8-4.7-3.1-4.7-6.2c0-1.2,0.8-2.4,1.9-2.8c1.1-0.5,2.5-0.2,3.3,0.7c0.5-0.5,1.1-0.8,1.8-0.9L-614.3-595.6z"/>
    </g>

  </symbol>  

  <symbol id="apple" viewBox="0 0 60 60">
    <path id="Bg-apple" class="st0" d="M46.9,41c0.6,0,1,0.4,1,1v2.7c0,0.6-0.4,1-1,1l-22.5,0l0,9.3c0,0.3-0.3,0.6-0.6,0.6
      c-0.2,0-0.3-0.1-0.4-0.2l-3.5-3.8l-3.2,3.8c-0.1,0.1-0.3,0.2-0.5,0.2c-0.3,0-0.5-0.2-0.6-0.5l0-0.1l0.1-9.2l-0.4,0c-0.6,0-1-0.4-1-1
      V42c0-0.6,0.4-1,1-1H46.9z M18.8,5.1l0.3,0c1.2,0.1,2.1,0.2,2.8,0.3c1.6,0.4,3.3,1.3,3.8,1.7c0.5,0.4,1.6,1.5,2.1,2.8
      c0.2,0.6,0.4,1.6,0.6,2.9l0,0.3l-0.1,0c1,0.1,1.9,0.3,2.8,0.2c0.2,0,1.3-0.5,3.5-1.4c1.8-0.7,3.2-1,4.2-0.7c0.2,0.1,0.5,0.1,0.7,0.2
      L40,9.9c0-0.2,0.2-0.2,0.4-0.2c0.1,0,0.2,0.1,0.2,0.2l0.8,2.7c0.4,0.3,0.8,0.6,1.1,1l2.4,0.7c0.2,0,0.2,0.2,0.2,0.4
      c0,0.1-0.1,0.2-0.2,0.2l-1.1,0.3c1.2,1.9,1.9,4.3,1.9,6.9c0,6.5-3.4,12.7-9.4,13.9c-0.2,0-1.3-0.3-1.7-0.3c-0.4-0.1-2-0.2-2.8,0
      c-0.8,0.2-0.7,0.7-1.5,0.7c-0.8,0-1.1,0-1.3,0c-2.8-0.4-4.5-2.2-6.2-4.2c-2.1-2.4-3.8-5.2-3.8-9c0-4.7,1.4-8.8,4.9-10.1
      c0.4-0.2,0.9-0.2,1.4-0.2c-1.6-0.4-3.3-1.3-3.8-1.7C21,10.7,20,9.6,19.4,8.3c-0.2-0.6-0.4-1.6-0.6-2.9L18.8,5.1z"/>
    <path id="Book" class="st1" d="M19.3,41c0,0-0.1,0-0.1,0c-0.7,0-1.2,0-1.5,0l-0.7,0.1c-0.3,0-0.5,0.1-0.5,0.1L16,41.4
      c-0.2,0.1-0.3,0.2-0.4,0.2c-0.2,0.1-0.4,0.3-0.5,0.4c-0.3,0.4-0.6,0.9-0.6,1l0,0v0c0,0.1,0,0.3,0,0.4l8.5,0l0,1.9l24.9,0
      c0.6,0,1,0.4,1,1v1c0,0.6-0.4,1-1,1l-24.9,0l0,6.6c0,0.3-0.3,0.6-0.6,0.6c-0.2,0-0.3-0.1-0.4-0.2l-3.5-3.8l-3.2,3.8
      c-0.1,0.1-0.3,0.2-0.5,0.2c-0.3,0-0.5-0.2-0.6-0.5l0-0.1l0-6.9c-0.3-0.2-0.5-0.3-0.7-0.5c-0.7-0.5-1.2-1.2-1.5-2
      c-0.3-0.7-0.4-1.3-0.4-2.1l0-0.3c0-0.9,0.6-2.1,1.4-3c0.3-0.3,0.6-0.6,1-0.9c0.1-0.1,0.2-0.2,0.4-0.2l0.6-0.3c0.6-0.3,1-0.4,2.4-0.5
      l0.3,0c0.4,0,0.9,0,1.6,0l0.7,0c0.7,0,1.5,0,2.5,0l25.5,0c0.6,0,1,0.4,1,1v1c0,0.6-0.4,1-1,1l-24.1,0c-0.1,0-0.3,0-0.4,0L21,41
      L19.3,41z"/>
    <path id="Apple" class="st1" d="M32.9,4.2c0.3,0.3,0.3,0.8,0,1.1l-0.5,0.5c-1.3,1.3-2.1,2.3-2.4,3.1c-0.3,0.7-0.4,1.8-0.4,3.3
      l0.1-0.1l1.7-0.7c1.9-0.8,3.5-1,4.6-0.7c0.9,0.2,1.8,0.6,2.6,1.2l0.6-1.9c0-0.2,0.2-0.2,0.4-0.2c0.1,0,0.2,0.1,0.2,0.2l1,3.2
      c0,0.1,0.1,0.2,0.2,0.2l3.2,1c0.2,0,0.2,0.2,0.2,0.4c0,0.1-0.1,0.2-0.2,0.2l-2.2,0.7c1,1.9,1.6,4.1,1.6,6.6c0,7.3-3.9,13.5-10,14.6
      c-0.2,0-0.3,0-0.6,0l-0.2,0l-1.1-0.3l-0.3,0c-0.6-0.1-1.8-0.1-2.3,0c-0.1,0-0.2,0.1-0.2,0.1l-0.1,0.1l-0.1,0.1
      C28.3,36.9,28,37,27.4,37c-0.1,0-0.3,0-0.4,0l-0.2,0l-0.5,0c-0.1,0-0.1,0-0.1,0l0,0L25.7,37c-2.5-0.4-4-1.6-6.4-4.4
      c-2.6-3-4-6-4-9.5c0-5.4,1.8-9.4,5.4-10.8c0.9-0.3,1.8-0.4,3.6-0.1l0.3,0l1.4,0.2c1,0.1,1.6,0.2,2.2,0.2l-0.1,0
      c-0.1-1.9,0.1-3.4,0.5-4.4c0.4-1.1,1.5-2.4,3.3-4.1C32.2,3.9,32.6,3.9,32.9,4.2z M32.3,12.6L32,12.7l-0.3,0.1
      c-1.1,0.5-1.9,0.8-2.5,1c-0.1,0-0.1,0.1-0.2,0.1c-0.4,0.2-0.7,0.2-0.8,0.2c-0.6,0-1.3,0-2.2-0.1l-0.3,0l-1.4-0.2
      c-1.8-0.3-2.5-0.3-3.2,0c-2.9,1.1-4.4,4.5-4.4,9.4c0,3.1,1.2,5.7,3.7,8.5c2.2,2.5,3.5,3.5,5.5,3.9l0.2,0l0,0l1.3,0
      c0.1,0,0.1,0,0.1,0l0,0l0.2-0.1c0.2-0.2,0.5-0.3,0.9-0.4c0.8-0.2,2.3-0.2,3.1,0l0.1,0l0,0l0.1,0l1.2,0.3c0.1,0,0.1,0,0.1,0
      c5.3-1,8.7-6.5,8.7-13.1c0-2.2-0.5-4.1-1.3-5.8l-0.9,2.9c0,0.2-0.2,0.2-0.4,0.2c-0.1,0-0.2-0.1-0.2-0.2l-1-3.2
      c0-0.1-0.1-0.2-0.2-0.2l-3.2-1c-0.2,0-0.2-0.2-0.2-0.4c0-0.1,0.1-0.2,0.2-0.2l3.2-1c0,0,0.1,0,0.1,0c-0.7-0.6-1.6-1-2.5-1.2
      C34.9,11.9,33.8,12,32.3,12.6z"/>
  </symbol>    

  <symbol id="clock" viewBox="0 0 60 60">
    <g id="Group" transform="translate(645.000000, 265.000000)">
      <path id="Bg-Clock" class="st0" d="M-611.6-251.1c10.2,0,18.5,8.3,18.5,18.5c0,10.2-8.3,18.5-18.5,18.5c-10.2,0-18.5-8.3-18.5-18.5
        C-630.1-242.8-621.8-251.1-611.6-251.1z M-594.3-259.4c0.1,0,0.2,0.1,0.2,0.2l1.2,4c0,0.1,0.1,0.2,0.2,0.2l4,1.2
        c0.2,0,0.2,0.2,0.2,0.4c0,0.1-0.1,0.2-0.2,0.2l-4,1.2c-0.1,0-0.2,0.1-0.2,0.2l-1.2,4c0,0.2-0.2,0.2-0.4,0.2c-0.1,0-0.2-0.1-0.2-0.2
        l-1.2-4c0-0.1-0.1-0.2-0.2-0.2l-4-1.2c-0.2,0-0.2-0.2-0.2-0.4c0-0.1,0.1-0.2,0.2-0.2l4-1.2c0.1,0,0.2-0.1,0.2-0.2l1.2-4
        C-594.7-259.3-594.5-259.4-594.3-259.4z"/>
      <path id="Clock" class="st1" d="M-617.6-256.6c12.7,0,23,10.3,23,23c0,8.5-4.7,16.3-12.1,20.2l0.6,1c0.1,0.2,0.1,0.5-0.2,0.7
        c-0.1,0-0.2,0.1-0.3,0.1l-3-0.1c-0.3,0-0.5-0.2-0.5-0.5c0-0.1,0-0.2,0.1-0.2l1.4-2.7c0.1-0.2,0.4-0.3,0.7-0.2
        c0.1,0,0.2,0.1,0.2,0.2l0.5,0.9c7-3.8,11.6-11.2,11.6-19.4c0-12.2-9.8-22-22-22l-0.6,0c-0.8,0-1.6,0.1-2.3,0.2
        c-0.3,0-0.5-0.2-0.6-0.4c0-0.3,0.2-0.5,0.4-0.6C-619.6-256.5-618.6-256.6-617.6-256.6L-617.6-256.6z M-617.6-252.1
        c10.2,0,18.5,8.3,18.5,18.5c0,10.2-8.3,18.5-18.5,18.5c-10.2,0-18.5-8.3-18.5-18.5C-636.1-243.8-627.8-252.1-617.6-252.1z
        M-617.6-248.6c-8.3,0-15,6.7-15,15s6.7,15,15,15c8.3,0,15-6.7,15-15S-609.3-248.6-617.6-248.6z M-617.6-244.9
        c0.4,0,0.7,0.3,0.7,0.6l0,0.1l0,10.4l6.9,6.3c0.3,0.3,0.3,0.8,0,1.1c-0.3,0.3-0.8,0.3-1.1,0l-7.1-6.5c-0.2-0.2-0.3-0.4-0.2-0.7
        c0,0,0,0,0,0l0-0.1v-10.5C-618.3-244.5-618-244.9-617.6-244.9z M-639.5-239.3L-639.5-239.3c0.4,0.1,0.5,0.3,0.5,0.6
        c-0.2,0.9-0.4,1.9-0.5,2.9c0,0.3-0.3,0.5-0.5,0.4s-0.5-0.3-0.4-0.5c0.1-1,0.3-2,0.5-3C-639.9-239.2-639.7-239.3-639.5-239.3
        L-639.5-239.3z M-637.8-244.7c0.1-0.2,0.4-0.3,0.7-0.2c0.2,0.1,0.3,0.4,0.2,0.7c-0.5,0.9-0.9,1.7-1.2,2.7c-0.1,0.3-0.4,0.4-0.6,0.3
        c-0.3-0.1-0.4-0.4-0.3-0.6C-638.7-242.8-638.3-243.8-637.8-244.7z M-634.2-249.5c0.2-0.2,0.5-0.2,0.7,0s0.2,0.5,0,0.7
        c-0.7,0.7-1.3,1.5-1.9,2.2c-0.2,0.2-0.5,0.3-0.7,0.1s-0.3-0.5-0.1-0.7C-635.5-248-634.9-248.8-634.2-249.5z M-596.4-259.4
        c0.1,0,0.2,0.1,0.2,0.2l1.2,4c0,0.1,0.1,0.2,0.2,0.2l4,1.2c0.2,0,0.2,0.2,0.2,0.4c0,0.1-0.1,0.2-0.2,0.2l-4,1.2
        c-0.1,0-0.2,0.1-0.2,0.2l-1.2,4c0,0.2-0.2,0.2-0.4,0.2c-0.1,0-0.2-0.1-0.2-0.2l-1.2-4c0-0.1-0.1-0.2-0.2-0.2l-4-1.2
        c-0.2,0-0.2-0.2-0.2-0.4c0-0.1,0.1-0.2,0.2-0.2l4-1.2c0.1,0,0.2-0.1,0.2-0.2l1.2-4C-596.7-259.3-596.5-259.4-596.4-259.4z
        M-629.3-253.4c0.2-0.1,0.5-0.1,0.7,0.2c0.1,0.2,0.1,0.5-0.2,0.7c-0.8,0.5-1.6,1.1-2.4,1.7c-0.2,0.2-0.5,0.1-0.7-0.1
        c-0.2-0.2-0.1-0.5,0.1-0.7C-631-252.3-630.2-252.9-629.3-253.4z M-623.7-255.8c0.3-0.1,0.5,0.1,0.6,0.4s-0.1,0.5-0.4,0.6
        c-0.9,0.3-1.9,0.6-2.8,1c-0.3,0.1-0.5,0-0.7-0.3c-0.1-0.3,0-0.5,0.3-0.7C-625.6-255.2-624.7-255.5-623.7-255.8z"/>
    </g>
  </symbol>  

  <symbol id="location-icon" viewBox="0 0 30 30.4">
    <g transform="translate(157.000000, 329.000000)">
      <path id="Icon" class="st1" d="M-131.2-303.7c0.8,0,1.4,0.6,1.4,1.4s-0.6,1.4-1.4,1.4h-21.6c-0.8,0-1.4-0.6-1.4-1.4
        s0.6-1.4,1.4-1.4H-131.2z M-141.9-326.8c4.5,0,8.1,3.9,8.1,8.8c0,3.7-2.3,7.5-7,12.6c-0.6,0.7-1.7,0.7-2.3,0
        c-4.3-4.7-6.6-8.3-6.9-11.9l0-0.3l0-0.5l0-0.4C-149.8-323.1-146.3-326.8-141.9-326.8z M-141.9-323.7c-2.8,0-5,2.2-5,5s2.2,5,5,5
        s5-2.2,5-5S-139.2-323.7-141.9-323.7z"/>
    </g>
  </symbol>  

  <symbol id="bus" viewBox="0 0 30 30.4">
    <g transform="translate(157.000000, 466.000000)">
      <path class="st1" d="M-136.4-463.2c2.1,0,3.8,1.7,3.8,3.8v13.1c0,1.4-0.8,2.6-1.9,3.3l1.4,2.6l0.1,0.2
        c0.2,0.6,0,1.4-0.7,1.7c-0.7,0.4-1.5,0.1-1.9-0.6l0,0l-1.8-3.5h-8.9l-1.8,3.5c-0.4,0.7-1.2,0.9-1.9,0.6c-0.6-0.3-0.9-1.1-0.7-1.7
        l0.1-0.2l1.4-2.6c-1.2-0.6-2-1.9-2-3.3v-13.1c0-2.1,1.7-3.8,3.8-3.8H-136.4z M-136.4-460.4h-11.2c-0.5,0-0.8,0.3-0.9,0.8l0,0.2
        l0,8.9l3.2,0c0.8,0,1.4,0.6,1.4,1.4c0,0.7-0.5,1.3-1.2,1.4l-0.2,0l-3.2,0l0,1.4c0,0.5,0.3,0.8,0.8,0.9l0.2,0h11.2
        c0.5,0,0.8-0.3,0.9-0.8l0-0.2l0-1.4l-2.8,0c-0.8,0-1.4-0.6-1.4-1.4c0-0.7,0.5-1.3,1.2-1.4l0.2,0l2.8,0l0-8.9c0-0.5-0.3-0.8-0.8-0.9
        L-136.4-460.4z"/>
    </g>
  </symbol> 

  <symbol id="search" viewBox="0 0 30 30">
    <g>
      <path d="M9.2,9.6c2.1-2.1,5.6-2.1,7.8,0c2,2,2.1,5.1,0.5,7.2l4.3,4.3c0.3,0.3,0.3,0.8,0,1.1
	s-0.8,0.3-1.1,0l-4.3-4.3c-2.2,1.6-5.2,1.5-7.2-0.5C7.1,15.2,7.1,11.7,9.2,9.6z M10.3,10.7c-1.6,1.6-1.6,4.1,0,5.7
	c1.6,1.6,4.1,1.6,5.7,0c1.6-1.6,1.6-4.1,0-5.7S11.8,9.1,10.3,10.7z"/>
    </g>
  </symbol>  

  <symbol id="download" viewBox="0 0 30 30">
    <g>
      <path d="M21.2,20c0.4,0,0.8,0.3,0.8,0.8s-0.3,0.8-0.8,0.8H9.8c-0.4,0-0.8-0.3-0.8-0.8S9.3,20,9.8,20
		H21.2z M15.5,7.2c0.4,0,0.8,0.3,0.8,0.8l0,8.5l4.2-4c0.3-0.3,0.7-0.3,1-0.1l0.1,0.1c0.3,0.3,0.3,0.7,0.1,1l-0.1,0.1l-5.4,5.2
		c-0.3,0.2-0.7,0.3-0.9,0.1l-0.1-0.1l-5.6-5.2c-0.3-0.3-0.3-0.8,0-1.1c0.3-0.3,0.7-0.3,1-0.1l0.1,0.1l4.2,3.9l0-8.4
		C14.8,7.6,15.1,7.2,15.5,7.2z"/>
    </g>
  </symbol>  

  <symbol id="family" viewBox="0 0 60 60">
    <g transform="translate(157.000000, 968.000000)">
	    <path id="Bg-Team" class="st0" d="M-131.4-932.3c2.4,0,4.7,0.9,6.4,2.4c0.9-0.3,1.8-0.4,2.8-0.4h8.8c5.3,0,9.6,4.3,9.6,9.6v4.4h-28
		v-1.9l-1.7,0.5c-0.1,0-0.2,0.1-0.2,0.2l-1.2,4c0,0.2-0.2,0.2-0.4,0.2c-0.1,0-0.2-0.1-0.2-0.2l-1.2-4c0-0.1-0.1-0.2-0.2-0.2
		l-2.1-0.6l-10.9,0v-4.4c0-5.3,4.3-9.6,9.6-9.6H-131.4z M-107.1-962.3c0.1,0,0.2,0.1,0.2,0.2l1.2,4c0,0.1,0.1,0.2,0.2,0.2l4,1.2
		c0.2,0,0.2,0.2,0.2,0.4c0,0.1-0.1,0.2-0.2,0.2l-4,1.2c-0.1,0-0.2,0.1-0.2,0.2l-1.2,4c0,0.2-0.2,0.2-0.4,0.2c-0.1,0-0.2-0.1-0.2-0.2
		l-1.2-4c0-0.1-0.1-0.2-0.2-0.2l-4-1.2c-0.2,0-0.2-0.2-0.2-0.4c0-0.1,0.1-0.2,0.2-0.2l4-1.2c0.1,0,0.2-0.1,0.2-0.2l1.2-4
		C-107.4-962.3-107.2-962.4-107.1-962.3z"/>
    	<path id="Team" class="st1" d="M-129.7-952.3l-0.1,0.8c-0.2,1.1-0.7,2-1.4,2.7c-0.4,0.4-0.9,0.8-1.4,1l-0.2,0.1v0.4l-0.2,3
		c0.6,0.1,1.1,0.4,1.5,0.9c0.4,0.4,0.6,0.8,0.6,1.3l0,0.2v0.2c-0.2,1.7-1.1,2.5-1.8,2.9c-0.7,1.9-1.4,3.1-2.5,4
		c-0.2,0.2-0.6,0.4-0.9,0.6l-0.2,0.1v1.8h1.9c1.5,0,3,0.3,4.3,1l0.3,0.2v-9.7c0-2.5,1-4.9,2.8-6.7s4.2-2.8,6.7-2.8s4.9,1,6.7,2.8
		c1.7,1.7,2.7,4,2.8,6.4l0,0.3v12.3c0.4,0.3,0.8,0.6,1.2,1c1.7,1.7,2.7,4,2.8,6.5l0,0.3v4.4H-134l0.4-1.2c0-0.1,0.1-0.1,0.1-0.2
		l0.1,0l0.4-0.1h24.5v-2.9c0-2.1-0.9-4.1-2.4-5.7c-1.4-1.5-3.3-2.3-5.4-2.4l-0.3,0h-0.9c-0.1,0.6-0.4,1.2-0.8,1.6
		c-0.5,0.6-1.3,0.9-2.1,0.9c-0.8,0-1.5-0.3-2.1-0.9c-0.4-0.4-0.6-0.9-0.8-1.4l0-0.2h-1.9c-2.1,0-4.2,0.9-5.7,2.4
		c-1.5,1.4-2.3,3.3-2.4,5.4l0,0.3v0.1l-0.2-0.1c-0.1,0-0.1-0.1-0.2-0.1l0-0.1l-0.8-2.5c0.4-1.6,1.2-3,2.2-4.2c0.6-0.5,1.2-1,1.9-1.4
		l0.3-0.2v-0.2c-1.2-0.8-2.7-1.3-4.3-1.4l-0.3,0h-1.9c-0.1,0.6-0.4,1.2-0.8,1.6c-0.5,0.6-1.3,0.9-2.1,0.9s-1.5-0.3-2.1-0.9
		c-0.4-0.4-0.6-0.9-0.8-1.4l0-0.2h-0.9c-2.1,0-4.2,0.9-5.7,2.4c-1.5,1.4-2.3,3.3-2.4,5.4l0,0.3v2.9h9.5l2.9-0.9
		c0.1,0,0.2-0.1,0.2-0.2l1.2-4c0-0.2,0.2-0.2,0.4-0.2c0.1,0,0.2,0.1,0.2,0.2l1.2,4c0,0.1,0.1,0.2,0.2,0.2l4,1.2
		c0.2,0,0.2,0.2,0.2,0.4c0,0.1-0.1,0.2-0.2,0.2l-4,1.2c-0.1,0-0.2,0.1-0.2,0.2l-1.2,4c0,0.2-0.2,0.2-0.4,0.2c-0.1,0-0.2-0.1-0.2-0.2
		l-1.2-4c0-0.1-0.1-0.2-0.2-0.2l-2.1-0.6h-11.9v-4.4c0-2.6,1-5,2.8-6.8c1.7-1.7,4-2.7,6.5-2.8l0.3,0h0.9v-1.8
		c-0.4-0.2-0.7-0.4-1.1-0.7c-1.1-0.9-1.9-2.1-2.2-3.5c-1.4-1-2-1.9-2.2-3c-0.1-0.7,0-1.3,0.4-1.9c0.4-0.4,0.9-0.8,1.4-1l0.2,0v-4.5
		c0-1,0.4-1.9,1.1-2.5c0.6-0.6,1.4-1,2.3-1.1l0.2,0H-129.7z M-118.8-931.5c-0.5,0.1-1,0.2-1.5,0.2c-0.4,0-0.8-0.1-1.2-0.1l-0.3-0.1
		v2.2c0,0.4,0.2,0.8,0.5,1.1c0.5,0.6,1.5,0.6,2.1,0c0.2-0.3,0.3-0.6,0.4-0.9l0-0.2V-931.5z M-137.8-933.5c-0.5,0.1-1,0.2-1.5,0.2
		c-0.4,0-0.8-0.1-1.2-0.1l-0.3-0.1v2.2c0,0.4,0.2,0.8,0.5,1.1c0.5,0.6,1.5,0.6,2.1,0c0.2-0.3,0.3-0.6,0.4-0.9l0-0.2V-933.5z
		 M-116.8-945.3l-0.1,0l-3.3,0.5l-3.6-0.5c-0.4,0-0.7,0.1-1,0.4c-0.2,0.3-0.3,0.6-0.4,0.9l0,0.2v3l-0.8-0.1h-0.1
		c-0.4,0-0.7,0.2-0.9,0.5c-0.2,0.2-0.2,0.4-0.2,0.7l0,0.1l0.1,0.5c0,0.2,0.1,0.5,0.3,0.7c0.2,0.1,0.4,0.3,0.8,0.6l0.1,0.1l0.7,0.6
		l0.1,0.3c0.3,1.1,0.9,2.1,1.8,2.8c1.8,1.5,4.5,1.5,6.3,0c0.8-0.7,1.4-1.6,2.2-3.2l0.1-0.3l0.1-0.3l0.3-0.1c0.3,0,0.5-0.2,0.7-0.4
		c0.1-0.2,0.2-0.3,0.3-0.6l0-0.1l0.1-0.8c0-0.2-0.1-0.4-0.2-0.6c-0.2-0.3-0.4-0.4-0.8-0.4l-0.1,0l-0.8,0.1l-0.1-3.4
		c-0.1-0.4-0.3-0.7-0.6-0.9C-116.1-945.2-116.5-945.4-116.8-945.3z M-134.3-947.3h-10v4.6l-0.8-0.1h-0.1c-0.4,0-0.7,0.2-0.9,0.5
		c-0.2,0.2-0.2,0.5-0.2,0.8c0.1,0.7,0.5,1.3,1.6,2.1l0.2,0.1l0.2,0.1l0.1,0.4c0.2,1.1,0.8,2.2,1.7,2.9c1.8,1.5,4.6,1.5,6.4,0
		c0.8-0.7,1.5-1.7,2.1-3.3l0.1-0.3l0.1-0.3l0.3-0.2c0.6-0.2,1-0.9,1.2-1.8c0-0.2-0.1-0.4-0.2-0.6c-0.3-0.3-0.5-0.4-0.9-0.4l-0.1,0
		l-0.8,0.1V-947.3z"/>
	    <path id="Star" class="st1" d="M-108.9-962.4l1.2,4c0,0.1,0.1,0.2,0.2,0.2l4,1.2c0.2,0,0.2,0.2,0.2,0.4c0,0.1-0.1,0.2-0.2,0.2
		l-4,1.2c-0.1,0-0.2,0.1-0.2,0.2l-1.2,4c0,0.2-0.2,0.2-0.4,0.2c-0.1,0-0.2-0.1-0.2-0.2l-1.2-4c0-0.1-0.1-0.2-0.2-0.2l-4-1.2
		c-0.2,0-0.2-0.2-0.2-0.4c0-0.1,0.1-0.2,0.2-0.2l4-1.2c0.1,0,0.2-0.1,0.2-0.2l1.2-4c0-0.2,0.2-0.2,0.4-0.2
		C-109-962.5-108.9-962.4-108.9-962.4z"/>
    </g>
  </symbol>


  <symbol id="world" viewBox="0 0 60 60">

    <g id="Group" transform="translate(645.000000, 968.000000)">
	    <path id="Bg-globe" class="st0" d="M-614-954c0.9,0,1.8,0.1,2.7,0.2c0,0,0,0,0.1,0c4.9,0.9,9,4.2,11,8.7c0,0,0,0.1,0.1,0.1
		c0.8,1.8,1.2,3.8,1.2,5.9c0,1.3-0.2,2.6-0.5,3.8c0,0,0,0.1,0,0.1c-1.5,5.5-6.1,9.8-11.8,10.8c0,0,0,0-0.1,0
		c-0.9,0.2-1.7,0.2-2.7,0.2s-1.8-0.1-2.7-0.2c0,0,0,0-0.1,0c-5.7-1-10.3-5.3-11.8-10.8c0,0,0-0.1,0-0.1c-0.3-1.2-0.5-2.5-0.5-3.8
		c0-2.1,0.4-4.1,1.2-5.9c0,0,0-0.1,0.1-0.1c2-4.5,6.1-7.8,11-8.7c0,0,0,0,0.1,0C-615.8-953.9-614.9-954-614-954z M-624.9-960.4
		c0.1,0,0.1,0.1,0.2,0.2l1.1,3.7c0,0.1,0.1,0.1,0.2,0.2l3.7,1.1c0.1,0,0.2,0.2,0.2,0.3c0,0.1-0.1,0.1-0.2,0.2l-3.7,1.1
		c-0.1,0-0.1,0.1-0.2,0.2l-1.1,3.7c0,0.1-0.2,0.2-0.3,0.2c-0.1,0-0.1-0.1-0.2-0.2l-1.1-3.7c0-0.1-0.1-0.1-0.2-0.2l-3.7-1.1
		c-0.1,0-0.2-0.2-0.2-0.3c0-0.1,0.1-0.1,0.2-0.2l3.7-1.1c0.1,0,0.1-0.1,0.2-0.2l1.1-3.7C-625.2-960.4-625.1-960.4-624.9-960.4z"/>
	    <path id="Globe" class="st1" d="M-617-960.8c11.5,0,20.8,9.3,20.8,20.8c0,11.2-8.9,20.4-20,20.7l-0.3,0l-0.2,0l0,1.3h12.7
		c0.6,0,1,0.4,1,1v1.8c0,0.6-0.4,1-1,1H-631c-0.6,0-1-0.4-1-1v-1.8c0-0.6,0.4-1,1-1h12.7l0-3.9c0-0.4,0.3-0.7,0.8-0.7
		c0.4,0,0.7,0.3,0.7,0.6l0,0.1l0,1.2l0.2,0c10.5-0.2,18.9-8.7,18.9-19.2c0-10.5-8.3-19-18.7-19.2l0,0.7c0,0.4-0.3,0.7-0.8,0.7
		c-0.4,0-0.7-0.3-0.7-0.7l0-0.1l0-1.5c0-0.4,0.3-0.7,0.8-0.7c0,0,0.1,0,0.1,0C-617.1-960.7-617-960.8-617-960.8z M-617.5-955
		c8.6,0,15.5,6.9,15.5,15.5s-6.9,15.5-15.5,15.5s-15.5-6.9-15.5-15.5c0-4.9,2.3-9.3,5.8-12.1l0.5,1.6c-1.1,1-2.1,2.1-2.8,3.4
		l-0.2,0.4l0.7,0.2c2.1,0.5,4.2,0.8,6.2,1c0.3-2.7,0.9-5.4,1.7-7.9l-0.3,0.1c-1.2,0.4-2.4,0.9-3.5,1.5l0.6-2.1
		C-622.2-954.4-619.9-955-617.5-955z M-621.3-933.8l0,0.1c0.4,2.7,1,5.3,1.9,7.8c0,0.1,0,0.2,0,0.3c0.6,0.1,1.2,0.1,1.8,0.1
		c0.5,0,1,0,1.6-0.1c0-0.1,0-0.2,0-0.3c0.9-2.5,1.6-5.2,2-7.9c-1.2,0.1-2.4,0.1-3.6,0.1C-618.7-933.7-620-933.7-621.3-933.8z
		 M-603.5-935.7c-3,0.8-6,1.4-8.9,1.7c-0.4,2.8-1,5.5-1.9,8.1c4.9-1.1,8.8-4.9,10.2-9.6L-603.5-935.7z M-630.9-935.4l0,0.1
		c1.4,4.6,5.2,8.2,9.9,9.4l0,0.1l-0.1-0.2c-0.8-2.5-1.4-5.1-1.8-7.8C-625.4-934.3-628.1-934.7-630.9-935.4z M-621.5-943.5l-0.1,0.7
		c-0.1,1-0.1,2-0.1,3c0,1.5,0.1,2.9,0.2,4.4c1.3,0.1,2.7,0.2,4,0.2c1.2,0,2.5-0.1,3.8-0.2c0.1-1.4,0.2-2.8,0.2-4.2
		c0-1.3-0.1-2.6-0.2-3.9c-1.3,0.1-2.6,0.2-3.8,0.2C-618.8-943.3-620.1-943.3-621.5-943.5z M-604.6-944.9L-604.6-944.9
		c-2.7,0.6-5.2,1-7.6,1.3c0.1,1.3,0.2,2.7,0.2,4.1c0,1.4-0.1,2.7-0.2,4c2.7-0.3,5.5-0.9,8.3-1.6c0.1,0,0.1,0,0.2,0
		c0.1-0.8,0.2-1.6,0.2-2.4c0-1.8-0.3-3.4-0.9-5L-604.6-944.9z M-630.4-944.9l0,0.1c-0.7,1.6-1,3.4-1,5.3c0,0.7,0,1.3,0.1,1.9
		l0.1,0.5l0.9,0.2c2.5,0.6,5,1.1,7.4,1.4c-0.1-1.4-0.2-2.8-0.2-4.2c0-1.3,0.1-2.6,0.2-3.9c-2.3-0.3-4.7-0.7-7.3-1.3
		C-630.3-944.9-630.4-944.9-630.4-944.9z M-617.5-953.5c-0.7,0-1.3,0-1.9,0.1l0.1-0.2c-1,2.8-1.7,5.6-2,8.6c1.3,0.1,2.6,0.2,3.9,0.2
		c1.2,0,2.4-0.1,3.7-0.2c-0.4-2.9-1-5.7-2-8.5C-616.4-953.5-616.9-953.5-617.5-953.5z M-614.2-953.1l0.1,0.5c0.8,2.5,1.3,5,1.7,7.6
		c2.2-0.2,4.6-0.6,7.1-1.2C-607.1-949.6-610.3-952.2-614.2-953.1z M-625.9-961.4c0.1,0,0.1,0.1,0.2,0.2l1.1,3.7
		c0,0.1,0.1,0.1,0.2,0.2l3.7,1.1c0.1,0,0.2,0.2,0.2,0.3c0,0.1-0.1,0.1-0.2,0.2l-3.7,1.1c-0.1,0-0.1,0.1-0.2,0.2l-1.1,3.7
		c0,0.1-0.2,0.2-0.3,0.2c-0.1,0-0.1-0.1-0.2-0.2l-1.1-3.7c0-0.1-0.1-0.1-0.2-0.2l-3.7-1.1c-0.1,0-0.2-0.2-0.2-0.3
		c0-0.1,0.1-0.1,0.2-0.2l3.7-1.1c0.1,0,0.1-0.1,0.2-0.2l1.1-3.7C-626.2-961.4-626.1-961.4-625.9-961.4z"/>
    </g>
  </symbol>  
</svg>

