<?xml version="1.0" encoding="utf-8"?>
<svg version="1.1" id="Layer_1" xmlns="http://www.w3.org/2000/svg" xmlns:xlink="http://www.w3.org/1999/xlink" x="0px" y="0px"
	 viewBox="0 0 60 60" xml:space="preserve">
<g transform="translate(899.000000, 17.000000)">
	<g>
		<path d="M-869.5-13c1.4,0,2.5,1.1,2.5,2.5V11h21.5c1.4,0,2.5,1.1,2.5,2.5c0,1.4-1.1,2.5-2.5,2.5H-867
			l0,21.5c0,1.4-1.1,2.5-2.5,2.5s-2.5-1.1-2.5-2.5l0-21.5h-21.5c-1.4,0-2.5-1.1-2.5-2.5c0-1.4,1.1-2.5,2.5-2.5h21.5v-21.5
			C-872-11.9-870.9-13-869.5-13z"/>
	</g>
</g>
</svg>
